<svg width="41" height="41" viewBox="0 0 41 41" fill="none" xmlns="http://www.w3.org/2000/svg">
<path d="M14.8062 8.2264C10.4712 13.0926 7.49616 20.0839 7.21991 20.7426L2.41741 18.6814C1.03616 18.0864 0.696159 16.2801 1.75866 15.2176L8.15491 8.8214C9.15366 7.82265 10.5987 7.3764 12.0012 7.65265L14.8062 8.2264ZM17.9724 29.8164C18.6099 30.4539 19.5449 30.6239 20.3524 30.2414C22.8174 29.0939 28.1087 26.3951 31.5299 22.9739C41.2837 13.2201 41.3687 5.27265 40.7949 1.87265C40.7197 1.45501 40.5186 1.07036 40.2185 0.770293C39.9184 0.470229 39.5338 0.269103 39.1162 0.193896C35.7162 -0.379854 27.7687 -0.294854 18.0149 9.4589C14.5937 12.8801 11.9162 18.1714 10.7474 20.6364C10.3649 21.4439 10.5562 22.4001 11.1724 23.0164L17.9724 29.8164ZM32.7837 26.2039C27.9174 30.5389 20.9262 33.5139 20.2674 33.7901L22.3287 38.5926C22.9237 39.9739 24.7299 40.3139 25.7924 39.2514L32.1887 32.8551C33.1874 31.8564 33.6337 30.4114 33.3574 29.0089L32.7837 26.2039ZM14.2749 31.7289C14.481 32.7581 14.4297 33.8222 14.1258 34.8268C13.8218 35.8314 13.2745 36.7454 12.5324 37.4876C10.8962 39.1239 5.81741 40.3351 2.52366 40.9726C1.05741 41.2489 -0.238841 39.9526 0.037409 38.4864C0.674909 35.1926 1.86491 30.1139 3.52241 28.4776C4.26468 27.7356 5.17869 27.1883 6.18329 26.8843C7.18789 26.5803 8.252 26.5291 9.28116 26.7351C11.7674 27.2026 13.8074 29.2426 14.2749 31.7289ZM22.9024 13.8576C22.9024 11.5201 24.8149 9.60765 27.1524 9.60765C29.4899 9.60765 31.4024 11.5201 31.4024 13.8576C31.4024 16.1951 29.4899 18.1076 27.1524 18.1076C24.8149 18.1076 22.9024 16.1951 22.9024 13.8576Z" fill="white"/>
</svg>
