<svg width="30" height="30" viewBox="0 0 30 30" fill="none" xmlns="http://www.w3.org/2000/svg">
<path d="M29.85 27.1299L29.51 26.8299C28.5455 25.9705 27.7012 24.985 27 23.8999C26.2343 22.4025 25.7753 20.7671 25.65 19.0899V14.1499C25.646 13.5499 25.5925 12.9512 25.49 12.3599C23.7962 12.0117 22.2746 11.0889 21.1831 9.74768C20.0915 8.40644 19.4969 6.7292 19.5 4.9999V4.3699C18.456 3.85609 17.3342 3.51821 16.18 3.3699V2.1099C16.18 1.75584 16.0394 1.41628 15.789 1.16591C15.5387 0.915554 15.1991 0.774902 14.845 0.774902C14.491 0.774902 14.1514 0.915554 13.9011 1.16591C13.6507 1.41628 13.51 1.75584 13.51 2.1099V3.4199C10.9258 3.78446 8.56062 5.07165 6.85127 7.04384C5.14192 9.01602 4.20378 11.54 4.21005 14.1499V19.0899C4.0848 20.7671 3.62583 22.4025 2.86005 23.8999C2.17093 24.9823 1.34024 25.9676 0.390049 26.8299L0.0500488 27.1299V29.9499H29.85V27.1299Z" fill="#09BDB2"/>
</svg>
