<svg width="14" height="14" viewBox="0 0 14 14" fill="none" xmlns="http://www.w3.org/2000/svg">
<path d="M13.3042 5.7695C13.3862 6.20883 13.4308 6.66817 13.4308 7.1475C13.4308 10.8968 10.9215 13.5628 7.13151 13.5628C6.26962 13.5631 5.41612 13.3935 4.61978 13.0638C3.82344 12.7341 3.09987 12.2507 2.49042 11.6413C1.88097 11.0318 1.39758 10.3082 1.06787 9.5119C0.738154 8.71556 0.568585 7.86206 0.568848 7.00017C0.568585 6.13827 0.738154 5.28477 1.06787 4.48843C1.39758 3.69209 1.88097 2.96853 2.49042 2.35907C3.09987 1.74962 3.82344 1.26623 4.61978 0.936518C5.41612 0.606807 6.26962 0.437238 7.13151 0.4375C8.90351 0.4375 10.3842 1.0895 11.5202 2.14817L9.67018 3.99817V3.9935C8.98151 3.3375 8.10751 3.00083 7.13151 3.00083C4.96618 3.00083 3.20618 4.83017 3.20618 6.99617C3.20618 9.1615 4.96618 10.9948 7.13151 10.9948C9.09618 10.9948 10.4335 9.8715 10.7082 8.32883H7.13151V5.7695H13.3048H13.3042Z" fill="#09BDB2"/>
</svg>
