<svg width="40" height="40" viewBox="0 0 40 40" fill="none" xmlns="http://www.w3.org/2000/svg">
<path d="M20 0C9.158 0 0 9.158 0 20C0 30.842 9.158 40 20 40C30.842 40 40 30.842 40 20C40 9.158 30.842 0 20 0ZM20 10C23.454 10 26 12.544 26 16C26 19.456 23.454 22 20 22C16.548 22 14 19.456 14 16C14 12.544 16.548 10 20 10ZM9.788 29.544C11.582 26.904 14.574 25.144 18 25.144H22C25.428 25.144 28.418 26.904 30.212 29.544C27.656 32.28 24.03 34 20 34C15.97 34 12.344 32.28 9.788 29.544Z" fill="#09BDB2"/>
</svg>
