<svg width="15" height="15" viewBox="0 0 15 15" fill="none" xmlns="http://www.w3.org/2000/svg">
<path d="M0.582265 0.582265C0.678059 0.486228 0.791858 0.410033 0.917145 0.358045C1.04243 0.306057 1.17674 0.279297 1.31239 0.279297C1.44803 0.279297 1.58235 0.306057 1.70763 0.358045C1.83292 0.410033 1.94672 0.486228 2.04251 0.582265L7.49989 6.0417L12.9573 0.582265C13.0531 0.486383 13.167 0.410326 13.2922 0.358435C13.4175 0.306545 13.5518 0.279837 13.6874 0.279837C13.823 0.279837 13.9573 0.306545 14.0825 0.358435C14.2078 0.410326 14.3216 0.486383 14.4175 0.582265C14.5134 0.678146 14.5895 0.791974 14.6413 0.917249C14.6932 1.04252 14.7199 1.17679 14.7199 1.31239C14.7199 1.44799 14.6932 1.58226 14.6413 1.70753C14.5895 1.83281 14.5134 1.94663 14.4175 2.04251L8.95808 7.49989L14.4175 12.9573C14.5134 13.0531 14.5895 13.167 14.6413 13.2922C14.6932 13.4175 14.7199 13.5518 14.7199 13.6874C14.7199 13.823 14.6932 13.9573 14.6413 14.0825C14.5895 14.2078 14.5134 14.3216 14.4175 14.4175C14.3216 14.5134 14.2078 14.5895 14.0825 14.6413C13.9573 14.6932 13.823 14.7199 13.6874 14.7199C13.5518 14.7199 13.4175 14.6932 13.2922 14.6413C13.167 14.5895 13.0531 14.5134 12.9573 14.4175L7.49989 8.95808L2.04251 14.4175C1.94663 14.5134 1.83281 14.5895 1.70753 14.6413C1.58226 14.6932 1.44799 14.7199 1.31239 14.7199C1.17679 14.7199 1.04252 14.6932 0.917249 14.6413C0.791974 14.5895 0.678146 14.5134 0.582265 14.4175C0.486383 14.3216 0.410326 14.2078 0.358435 14.0825C0.306545 13.9573 0.279837 13.823 0.279837 13.6874C0.279837 13.5518 0.306545 13.4175 0.358435 13.2922C0.410326 13.167 0.486383 13.0531 0.582265 12.9573L6.0417 7.49989L0.582265 2.04251C0.486228 1.94672 0.410033 1.83292 0.358045 1.70763C0.306057 1.58235 0.279297 1.44803 0.279297 1.31239C0.279297 1.17674 0.306057 1.04243 0.358045 0.917145C0.410033 0.791858 0.486228 0.678059 0.582265 0.582265Z" fill="#09BDB2"/>
</svg>
