<svg width="72" height="72" viewBox="0 0 72 72" fill="none" xmlns="http://www.w3.org/2000/svg">
<path d="M36 0C16.4844 0 0 16.4844 0 36C0 55.5156 16.4844 72 36 72C55.5156 72 72 55.5156 72 36C72 16.4844 55.5156 0 36 0ZM36 18C42.2172 18 46.8 22.5792 46.8 28.8C46.8 35.0208 42.2172 39.6 36 39.6C29.7864 39.6 25.2 35.0208 25.2 28.8C25.2 22.5792 29.7864 18 36 18ZM17.6184 53.1792C20.8476 48.4272 26.2332 45.2592 32.4 45.2592H39.6C45.7704 45.2592 51.1524 48.4272 54.3816 53.1792C49.7808 58.104 43.254 61.2 36 61.2C28.746 61.2 22.2192 58.104 17.6184 53.1792Z" fill="white"/>
</svg>
