<svg width="65" height="64" viewBox="0 0 65 64" fill="none" xmlns="http://www.w3.org/2000/svg">
<path d="M48.4871 16.0055L32.4948 32.0045L48.4905 48.007L64.4828 32.008L48.4871 16.0055Z" fill="#1D4ED8"/>
<path d="M32.4975 31.9984L16.5052 47.9974L32.501 63.9999L48.4932 48.0009L32.4975 31.9984Z" fill="#1D4ED8"/>
<path d="M16.4998 15.9956L0.507492 31.9947L16.5032 47.9972L32.4955 31.9981L16.4998 15.9956Z" fill="#2563EB"/>
<path d="M32.4894 -1.07754e-05L16.4971 15.999L32.4928 32.0015L48.4851 16.0025L32.4894 -1.07754e-05Z" fill="#2563EB"/>
<path d="M64.4815 32.0085L64.5086 32.0356V63.97L64.4815 63.9971L48.4903 47.9991L64.4815 32.0085Z" fill="#1E40AF"/>
<path d="M0.50386 31.9937L16.4951 47.9916L0.50386 63.9896H0.491562L0.50386 31.9937Z" fill="#2563EB"/>
</svg>
